<svg xmlns="http://www.w3.org/2000/svg" version="1.1" xmlns:xlink="http://www.w3.org/1999/xlink" xmlns:svgjs="http://svgjs.com/svgjs" width="40" height="40" x="0" y="0" viewBox="0 0 32 32" style="enable-background:new 0 0 512 512" xml:space="preserve" class=""><g><path xmlns="http://www.w3.org/2000/svg" d="m16.068.947c-8.279 0-15 6.721-15 15 0 8.278 6.721 15 15 15s15-6.722 15-15c0-8.279-6.721-15-15-15zm-4.685 12.56c.403.176.605.394.605.652 0 .108-.051.279-.152.516-.1.236-.185.443-.255.619l-1.04 2.534c-.095.278-.252.473-.473.587-.094.044-.214.066-.359.066s-.285-.055-.421-.166c-.135-.11-.225-.222-.269-.335l-.076-.161c-.051-.126-.237-.618-.558-1.475-.063.151-.156.399-.279.742-.123.344-.202.558-.236.643-.035.085-.057.142-.067.17-.009.029-.036.081-.08.156-.044.076-.095.142-.151.199-.152.151-.325.227-.52.227-.196 0-.36-.055-.492-.166-.132-.11-.221-.222-.265-.335l-1.428-3.48c-.063-.189-.094-.312-.094-.369 0-.252.179-.451.539-.596.201-.082.365-.123.491-.123.127 0 .229.027.308.081.079.053.134.107.165.161.032.053.057.108.076.165.107.252.331.845.671 1.778l.558-1.532c.038-.126.107-.237.208-.331.183-.183.369-.274.558-.274s.352.05.487.151c.136.101.229.202.279.303l.076.16c.315.883.501 1.387.558 1.513l.576-1.569c.152-.404.379-.606.681-.606.12 0 .246.032.379.095zm7.687 0c.404.176.606.394.606.652 0 .108-.051.279-.152.516-.101.236-.186.443-.255.619l-1.04 2.534c-.095.278-.252.473-.473.587-.095.044-.214.066-.359.066s-.286-.055-.421-.166c-.136-.11-.225-.222-.27-.335l-.075-.161c-.051-.126-.237-.618-.558-1.475-.063.151-.156.399-.279.742-.123.344-.202.558-.237.643-.034.085-.056.142-.066.17-.009.029-.036.081-.08.156-.044.076-.095.142-.151.199-.152.151-.325.227-.52.227-.196 0-.36-.055-.492-.166-.133-.11-.221-.222-.265-.335l-1.428-3.48c-.063-.189-.094-.312-.094-.369 0-.252.179-.451.539-.596.201-.082.365-.123.491-.123s.229.027.308.081c.078.053.134.107.165.161.032.053.057.108.076.165.107.252.331.845.671 1.778l.558-1.532c.038-.126.107-.237.208-.331.183-.183.369-.274.558-.274s.351.05.487.151.229.202.279.303l.076.16c.315.883.501 1.387.558 1.513l.576-1.569c.152-.404.379-.606.681-.606.12 0 .246.032.378.095zm7.688 0c.404.176.606.394.606.652 0 .108-.051.279-.152.516-.101.236-.186.443-.255.619l-1.04 2.534c-.095.278-.252.473-.473.587-.095.044-.214.066-.359.066s-.286-.055-.421-.166c-.136-.11-.226-.222-.27-.335l-.075-.161c-.051-.126-.237-.618-.558-1.475-.063.151-.156.399-.279.742-.123.344-.202.558-.237.643-.034.085-.056.142-.066.17-.009.029-.036.081-.08.156-.044.076-.095.142-.151.199-.152.151-.325.227-.521.227-.195 0-.359-.055-.491-.166-.133-.11-.221-.222-.265-.335l-1.428-3.48c-.063-.189-.095-.312-.095-.369 0-.252.18-.451.539-.596.202-.082.366-.123.492-.123s.229.027.308.081c.078.053.133.107.165.161.032.053.057.108.076.165.107.252.331.845.671 1.778l.558-1.532c.038-.126.107-.237.208-.331.183-.183.369-.274.558-.274s.351.05.487.151c.135.101.228.202.279.303l.076.16c.315.883.501 1.387.557 1.513l.577-1.569c.152-.404.379-.606.681-.606.12 0 .246.032.378.095z" fill="#000000" data-original="#000000"></path></g></svg>